# xmcd
#
# Track frame offsets:
#	150
#	10595
#	23444
#	37424
#	52215
#	66585
#	85363
#	98617
#	118072
#	136346
#	150099
#
# Disc length: 2340 seconds
# Revision: 0
# Processed by: cddbd v1.5.2PL0 Copyright (c) Steve Scherf et al.
# Submitted via: dBpowerAMP V12.0
#
DISCID=8a09220b
DTITLE=The Lonesome Ace Stringband - Gone For Evermore
DYEAR=2016
DGENRE=Folk
TTITLE0=The Hucklebuck
TTITLE1=Saro Jane
TTITLE2=Cotton-Eyed Joe
TTITLE3=Old Paint
TTITLE4=Mad As a Hornet
TTITLE5=Hold On
TTITLE6=The Boatman
TTITLE7=Across the Rocky Mountains
TTITLE8=Let Him Go On Mama
TTITLE9=Going Across The Sea
TTITLE10=Nancy (Till The Tape Runs Out)
EXTD=
EXTT0=
EXTT1=
EXTT2=
EXTT3=
EXTT4=
EXTT5=
EXTT6=
EXTT7=
EXTT8=
EXTT9=
EXTT10=
PLAYORDER=
